<?xml version="1.0" encoding="utf-8"?>
<!-- Generator: Adobe Illustrator 22.1.0, SVG Export Plug-In . SVG Version: 6.00 Build 0)  -->
<svg version="1.1" id="Layer_1" xmlns="http://www.w3.org/2000/svg" xmlns:xlink="http://www.w3.org/1999/xlink" x="0px" y="0px"
	 viewBox="0 0 1459.9 438.5" style="enable-background:new 0 0 1459.9 438.5;" xml:space="preserve">
<style type="text/css">
	.st0{fill:#012639;}
</style>
<g>
	<path class="st0" d="M328.5,265.9c7.3-2.9,13.1-7.5,17.3-13.9c4.2-6.4,6.3-13.6,6.3-21.5c0-7.7-2.1-14.8-6.3-21.2
		c-4.2-6.4-9.7-11-16.6-13.7c-6.8-2.7-18.1-4.1-33.6-4.1h-40.8v78.3l39.1,0.5C309.6,270.2,321.2,268.8,328.5,265.9z"/>
	<path class="st0" d="M219.3,0C146.4,0,81.8,35.6,41.9,90.3h354.7C356.7,35.6,292.2,0,219.3,0z"/>
	<path class="st0" d="M411,112.9H167.3v208.2h-23.5V112.9H27.5C10,144.4,0,180.7,0,219.3c0,121.1,98.2,219.3,219.3,219.3
		c4.2,0,8.4-0.1,12.5-0.4V168.9h46c26.4,0,44.1,1.1,53.3,3.4c13.2,3.2,23.9,9.9,32.3,20c8.4,10.1,12.6,22.8,12.6,38
		c0,15.4-4.1,28.1-12.2,38c-8.2,10-19.4,16.7-33.7,20.2c-10.5,2.5-30,3.8-58.7,3.8h-16.5v143.3c104.2-17,183.7-107.4,183.7-216.4
		C438.5,180.7,428.5,144.4,411,112.9z"/>
</g>
<g>
	<g>
		<polygon class="st0" points="479.6,130.5 498.6,130.5 498.6,209.3 506.6,209.3 506.6,130.5 525.5,130.5 525.5,121.8 479.6,121.8 
					"/>
		<polygon class="st0" points="567.8,209.5 608.3,209.5 608.3,201.8 575.6,201.8 575.6,174.6 608.5,174.6 608.5,166.9 575.6,166.9 
			575.6,141.1 608.5,141.1 608.5,133.4 567.8,133.4 		"/>
		<path class="st0" d="M714.2,189.3L714.2,189.3c-4.9,5-8.9,8.3-11.8,10c-3.9,2.3-8.8,3.4-14.4,3.4c-8.6,0-15.8-3.1-22-9.3
			c-6.2-6.3-9.2-13.5-9.2-22.2c0-8.4,3-15.5,9.1-21.6c6.1-6.2,13.2-9.2,21.5-9.2c5.1,0,9.9,1,14.4,3.1c4.4,2,8.1,4.9,10.9,8.4
			l0.8,0.9h9.8l-3-4c-8.1-10.9-19.2-16.5-32.7-16.5c-10.6,0-19.8,4-27.3,11.8c-7.5,7.8-11.4,17.2-11.4,28c0,10.2,3.9,19.2,11.6,26.9
			c7.7,7.6,16.8,11.5,27,11.5c14.2,0,25.6-6.1,33.8-18.1l2.7-3.9h-9L714.2,189.3z"/>
		<polygon class="st0" points="807,168.4 772.3,168.4 772.3,133.6 764.4,133.6 764.4,209.6 772.3,209.6 772.3,176.2 807,176.2 
			807,209.6 814.9,209.6 814.9,133.5 807,133.5 		"/>
		<polygon class="st0" points="912,195.3 869.7,133.5 869.6,133.3 861.2,133.3 861.2,209.4 869,209.4 869,146.2 912.3,209.6 
			919.9,209.6 919.9,133.3 912,133.3 		"/>
		<path class="st0" d="M991.3,133.3L959,209.5l8.3,0l10.9-25h34.8l10.6,25.1l8.5,0l-32.6-76.2L991.3,133.3L991.3,133.3z
			 M1009.7,176.9h-28.4l14.2-33.4L1009.7,176.9z"/>
		<path class="st0" d="M1110.1,127.5c-5-3.7-11.3-5.5-18.9-5.5h-18.5v87.5h7.9v-35.7h13.5c7.6,0,13.8-2.3,18.3-7
			c4.6-4.7,6.9-11.2,6.9-19.4C1119.4,138.7,1116.3,132,1110.1,127.5z M1094.7,165.1h-14.1v-34.7h10.3c5.7,0,10.5,1.3,14.2,3.9
			c4.3,3,6.3,7.3,6.3,13c0,5.5-1.5,9.7-4.5,12.9C1104,163.5,1100,165.1,1094.7,165.1z"/>
		<path class="st0" d="M1214.3,158.4c0-8-2.7-14.3-8.1-18.6c-5.2-4.2-12.7-6.3-22.1-6.3h-20.3v76h7.8v-68.3h12.7
			c7.1,0,12.7,1.6,16.6,4.6c3.8,3,5.6,7.1,5.6,12.6c0,4.4-1.4,8-4.3,11.1c-2.9,3.2-6.6,5-11.3,5.6c-1.3,0.2-2.7,0.2-4.3,0.2l-0.8,0
			c-0.5,0-0.9-0.1-1.2-0.1h-6.9l24.4,34.2l0.1,0.2l10,0.1l-3.4-4.1c-2.9-3.6-6.2-8-9.8-13.1l-6.8-9.9c5.5-0.6,10.3-2.8,14.2-6.4
			C1211.7,171.6,1214.3,165.6,1214.3,158.4z"/>
		<rect x="1260.6" y="133.3" class="st0" width="7.8" height="76.2"/>
		<polygon class="st0" points="1364.3,195.3 1322,133.5 1321.9,133.3 1313.5,133.3 1313.5,209.4 1321.3,209.4 1321.3,146.2 
			1364.6,209.6 1372.2,209.6 1372.2,133.3 1364.3,133.3 		"/>
		<polygon class="st0" points="1414.1,133.3 1414.1,141 1433.1,141 1433.1,209.3 1441.1,209.3 1441.1,141 1459.9,141 1459.9,133.3 
					"/>
	</g>
	<g>
		<path class="st0" d="M550.5,268.1v12.5h-1c-0.3-2.4-0.9-4.3-1.7-5.7c-0.8-1.4-2-2.5-3.5-3.4s-3.1-1.2-4.7-1.2
			c-1.8,0-3.4,0.6-4.6,1.7c-1.2,1.1-1.8,2.4-1.8,3.8c0,1.1,0.4,2.1,1.1,3c1.1,1.3,3.7,3.1,7.8,5.3c3.4,1.8,5.7,3.2,6.9,4.2
			c1.2,1,2.2,2.1,2.8,3.4c0.7,1.3,1,2.7,1,4.1c0,2.7-1.1,5.1-3.2,7.1c-2.1,2-4.8,3-8.2,3c-1,0-2-0.1-3-0.2c-0.5-0.1-1.7-0.4-3.4-1
			c-1.7-0.6-2.8-0.8-3.3-0.8c-0.4,0-0.8,0.1-1,0.4c-0.3,0.3-0.4,0.8-0.6,1.6h-1v-12.4h1c0.5,2.6,1.1,4.5,1.9,5.8
			c0.8,1.3,2,2.4,3.6,3.2c1.6,0.9,3.4,1.3,5.3,1.3c2.2,0,4-0.6,5.2-1.8c1.3-1.2,1.9-2.6,1.9-4.1c0-0.9-0.2-1.8-0.7-2.7
			s-1.2-1.7-2.3-2.5c-0.7-0.5-2.6-1.7-5.7-3.4c-3.1-1.7-5.3-3.1-6.6-4.1c-1.3-1-2.3-2.2-3-3.4c-0.7-1.2-1-2.6-1-4.1
			c0-2.6,1-4.8,3-6.7c2-1.9,4.5-2.8,7.6-2.8c1.9,0,3.9,0.5,6.1,1.4c1,0.4,1.7,0.7,2.1,0.7c0.5,0,0.8-0.1,1.1-0.4
			c0.3-0.3,0.5-0.8,0.7-1.7L550.5,268.1L550.5,268.1z"/>
		<path class="st0" d="M555.8,283l7.5-3h1v5.7c1.3-2.1,2.5-3.6,3.8-4.5c1.3-0.9,2.6-1.3,4-1.3c2.4,0,4.5,1,6.1,2.9
			c2,2.3,3,5.4,3,9.1c0,4.2-1.2,7.7-3.6,10.4c-2,2.3-4.5,3.4-7.5,3.4c-1.3,0-2.4-0.2-3.4-0.6c-0.7-0.3-1.5-0.8-2.4-1.6v7.4
			c0,1.7,0.1,2.7,0.3,3.2c0.2,0.5,0.6,0.8,1.1,1.1c0.5,0.3,1.4,0.4,2.8,0.4v1h-12.8v-1h0.7c1,0,1.8-0.2,2.5-0.6
			c0.3-0.2,0.6-0.5,0.8-0.9c0.2-0.4,0.3-1.5,0.3-3.3v-23c0-1.6-0.1-2.6-0.2-3c-0.1-0.4-0.4-0.7-0.7-1c-0.3-0.2-0.7-0.3-1.3-0.3
			c-0.4,0-1,0.1-1.6,0.4L555.8,283z M564.3,287.3v9.1c0,2,0.1,3.3,0.2,3.9c0.2,1,0.9,1.9,1.8,2.7c1,0.8,2.2,1.2,3.7,1.2
			c1.8,0,3.2-0.7,4.3-2.1c1.4-1.8,2.2-4.4,2.2-7.6c0-3.7-0.8-6.6-2.4-8.6c-1.1-1.4-2.5-2.1-4-2.1c-0.9,0-1.7,0.2-2.5,0.6
			C566.8,284.7,565.7,285.7,564.3,287.3z"/>
		<path class="st0" d="M588.8,289.8c0,3.6,0.9,6.5,2.6,8.5c1.8,2.1,3.9,3.1,6.2,3.1c1.6,0,3-0.4,4.2-1.3c1.2-0.9,2.2-2.4,3-4.5
			l0.8,0.5c-0.4,2.4-1.5,4.6-3.2,6.6c-1.8,2-4,3-6.7,3c-2.9,0-5.4-1.1-7.5-3.4c-2.1-2.3-3.1-5.3-3.1-9.2c0-4.2,1.1-7.4,3.2-9.7
			s4.8-3.5,8-3.5c2.7,0,5,0.9,6.7,2.7c1.8,1.8,2.6,4.2,2.6,7.2L588.8,289.8L588.8,289.8z M588.8,288.3h11.3
			c-0.1-1.6-0.3-2.7-0.6-3.3c-0.4-1-1.1-1.8-2-2.3c-0.9-0.6-1.8-0.9-2.8-0.9c-1.5,0-2.8,0.6-3.9,1.7
			C589.7,284.6,589,286.2,588.8,288.3z"/>
		<path class="st0" d="M629.6,295.7c-0.7,3.2-1.9,5.7-3.9,7.4s-4,2.6-6.4,2.6c-2.8,0-5.2-1.2-7.2-3.5c-2.1-2.3-3.1-5.5-3.1-9.4
			c0-3.8,1.1-6.9,3.4-9.3c2.3-2.4,5-3.6,8.2-3.6c2.4,0,4.4,0.6,5.9,1.9c1.5,1.3,2.3,2.6,2.3,3.9c0,0.7-0.2,1.2-0.7,1.6
			s-1,0.6-1.8,0.6c-1,0-1.8-0.3-2.4-1c-0.3-0.4-0.5-1.1-0.6-2.1s-0.5-1.8-1.1-2.4c-0.6-0.5-1.5-0.8-2.6-0.8c-1.8,0-3.2,0.7-4.3,2
			c-1.4,1.7-2.2,4-2.2,6.9c0,2.9,0.7,5.5,2.1,7.7c1.4,2.2,3.4,3.3,5.8,3.3c1.7,0,3.3-0.6,4.7-1.8c1-0.8,1.9-2.3,2.8-4.4L629.6,295.7
			z"/>
		<path class="st0" d="M641.5,279.9v19.6c0,1.5,0.1,2.5,0.3,3c0.2,0.5,0.5,0.9,1,1.1c0.4,0.2,1.2,0.4,2.4,0.4v1h-11.8v-1
			c1.2,0,2-0.1,2.4-0.3c0.4-0.2,0.7-0.6,1-1.1s0.4-1.5,0.4-3.1v-9.4c0-2.6-0.1-4.4-0.2-5.1c-0.1-0.6-0.3-1-0.6-1.2
			c-0.3-0.2-0.6-0.3-1.1-0.3c-0.5,0-1.1,0.1-1.8,0.4l-0.4-1l7.3-3L641.5,279.9L641.5,279.9z M639.3,267.2c0.7,0,1.4,0.3,1.9,0.8
			c0.5,0.5,0.8,1.2,0.8,1.9s-0.3,1.4-0.8,1.9s-1.2,0.8-1.9,0.8s-1.4-0.3-1.9-0.8c-0.5-0.5-0.8-1.2-0.8-1.9s0.3-1.4,0.8-1.9
			C637.9,267.4,638.5,267.2,639.3,267.2z"/>
		<path class="st0" d="M662,301.5c-2.5,1.9-4.1,3-4.7,3.4c-1,0.4-2,0.7-3.1,0.7c-1.7,0-3.1-0.6-4.2-1.7s-1.6-2.7-1.6-4.5
			c0-1.2,0.3-2.2,0.8-3.1c0.7-1.2,2-2.3,3.8-3.4c1.8-1.1,4.8-2.4,9-3.9v-1c0-2.4-0.4-4.1-1.2-5s-1.9-1.4-3.4-1.4
			c-1.1,0-2,0.3-2.7,0.9c-0.7,0.6-1,1.3-1,2.1l0.1,1.5c0,0.8-0.2,1.4-0.6,1.9c-0.4,0.4-1,0.7-1.6,0.7c-0.7,0-1.2-0.2-1.6-0.7
			c-0.4-0.5-0.6-1.1-0.6-1.9c0-1.5,0.8-2.9,2.3-4.2s3.7-1.9,6.6-1.9c2.2,0,3.9,0.4,5.3,1.1c1,0.5,1.8,1.4,2.3,2.6
			c0.3,0.8,0.5,2.3,0.5,4.7v8.3c0,2.3,0,3.7,0.1,4.3s0.2,0.9,0.4,1s0.4,0.3,0.7,0.3c0.3,0,0.5-0.1,0.7-0.2c0.4-0.2,1.1-0.9,2.2-1.9
			v1.5c-2,2.7-3.9,4-5.7,4c-0.9,0-1.6-0.3-2.1-0.9C662.3,304,662,302.9,662,301.5z M662,299.7v-9.3c-2.7,1.1-4.4,1.8-5.2,2.3
			c-1.4,0.8-2.4,1.6-3,2.4s-0.9,1.8-0.9,2.8c0,1.3,0.4,2.3,1.1,3.2c0.8,0.8,1.6,1.3,2.6,1.3C658,302.4,659.8,301.5,662,299.7z"/>
		<path class="st0" d="M680.7,267.2v32.3c0,1.5,0.1,2.5,0.3,3s0.6,0.9,1,1.1s1.3,0.4,2.6,0.4v1h-11.9v-1c1.1,0,1.9-0.1,2.3-0.3
			c0.4-0.2,0.7-0.6,1-1.1s0.3-1.5,0.3-3.1v-22.1c0-2.7-0.1-4.4-0.2-5.1c-0.1-0.6-0.3-1.1-0.6-1.3c-0.3-0.2-0.6-0.3-1-0.3
			c-0.5,0-1,0.1-1.8,0.4l-0.5-0.9l7.3-3L680.7,267.2L680.7,267.2z"/>
		<path class="st0" d="M694.6,272.6v8h5.7v1.9h-5.7v15.8c0,1.6,0.2,2.6,0.7,3.2c0.5,0.5,1,0.8,1.7,0.8c0.6,0,1.2-0.2,1.7-0.5
			c0.5-0.4,1-0.9,1.3-1.6h1c-0.6,1.7-1.5,3-2.6,3.9c-1.1,0.9-2.3,1.3-3.5,1.3c-0.8,0-1.6-0.2-2.4-0.7s-1.4-1.1-1.7-1.9
			s-0.6-2.1-0.6-3.9v-16.4h-3.9v-0.9c1-0.4,2-1,3-2c1-0.9,1.9-2,2.7-3.3c0.4-0.7,1-1.9,1.7-3.7L694.6,272.6L694.6,272.6z"/>
		<path class="st0" d="M701.2,280.6h11.4v1H712c-0.8,0-1.4,0.2-1.8,0.5c-0.4,0.3-0.6,0.8-0.6,1.3c0,0.7,0.3,1.6,0.9,2.9l5.9,12.3
			l5.4-13.5c0.3-0.7,0.5-1.4,0.5-2.2c0-0.3-0.1-0.6-0.2-0.7c-0.1-0.2-0.4-0.4-0.7-0.5c-0.3-0.1-0.8-0.2-1.6-0.2v-1h7.9v1
			c-0.7,0.1-1.2,0.2-1.5,0.4c-0.4,0.2-0.7,0.6-1.2,1.2c-0.2,0.2-0.5,0.9-0.9,2l-9.9,24.3c-1,2.4-2.2,4.1-3.8,5.3s-3,1.8-4.5,1.8
			c-1,0-1.9-0.3-2.6-0.9c-0.7-0.6-1-1.3-1-2.1c0-0.7,0.2-1.3,0.7-1.8c0.5-0.5,1.2-0.7,2-0.7c0.6,0,1.4,0.2,2.4,0.6
			c0.7,0.3,1.2,0.4,1.3,0.4c0.5,0,1.1-0.3,1.7-0.8c0.6-0.5,1.3-1.6,1.9-3.2l1.7-4.2l-8.7-18.4c-0.3-0.5-0.7-1.2-1.3-2
			c-0.4-0.6-0.8-1-1.1-1.2c-0.4-0.3-1.1-0.5-2-0.7L701.2,280.6L701.2,280.6z"/>
		<path class="st0" d="M752.9,288.1v10.5c0,2.3,0.2,3.7,0.7,4.2c0.7,0.8,1.7,1.2,3.1,1.2h1.4v1h-15.4v-1h1.4c1.5,0,2.6-0.5,3.3-1.5
			c0.4-0.5,0.5-1.9,0.5-3.9v-23.3c0-2.3-0.2-3.7-0.7-4.2c-0.7-0.8-1.7-1.2-3.1-1.2h-1.4v-1h13.2c3.2,0,5.8,0.3,7.6,1
			c1.9,0.7,3.4,1.8,4.7,3.4c1.3,1.6,1.9,3.4,1.9,5.6c0,2.9-1,5.3-2.9,7.2s-4.7,2.8-8.2,2.8c-0.9,0-1.8-0.1-2.8-0.2
			C755.1,288.5,754.1,288.3,752.9,288.1z M752.9,286.6c0.9,0.2,1.8,0.3,2.5,0.4s1.3,0.1,1.9,0.1c1.8,0,3.4-0.7,4.8-2.1
			c1.3-1.4,2-3.3,2-5.5c0-1.6-0.3-3-1-4.3c-0.6-1.3-1.5-2.3-2.7-3c-1.2-0.7-2.5-1-4-1c-0.9,0-2.1,0.2-3.5,0.5L752.9,286.6
			L752.9,286.6z"/>
		<path class="st0" d="M780.9,279.9v5.5c2-3.7,4.1-5.5,6.3-5.5c1,0,1.8,0.3,2.4,0.9c0.6,0.6,1,1.3,1,2.1c0,0.7-0.2,1.3-0.7,1.8
			s-1,0.7-1.6,0.7c-0.6,0-1.3-0.3-2.1-0.9s-1.3-0.9-1.7-0.9c-0.3,0-0.7,0.2-1,0.5c-0.8,0.7-1.6,1.9-2.5,3.6v11.7
			c0,1.3,0.2,2.4,0.5,3.1c0.2,0.5,0.6,0.9,1.2,1.2s1.4,0.5,2.5,0.5v1h-12.5v-1c1.2,0,2.2-0.2,2.8-0.6c0.4-0.3,0.8-0.7,0.9-1.4
			c0.1-0.3,0.1-1.2,0.1-2.6v-9.4c0-2.8-0.1-4.5-0.2-5.1s-0.3-0.9-0.6-1.2c-0.3-0.2-0.7-0.4-1.2-0.4c-0.5,0-1.2,0.1-1.9,0.4l-0.3-1
			l7.4-3L780.9,279.9L780.9,279.9z"/>
		<path class="st0" d="M800.3,279.9v19.6c0,1.5,0.1,2.5,0.3,3c0.2,0.5,0.5,0.9,1,1.1c0.4,0.2,1.2,0.4,2.4,0.4v1h-11.8v-1
			c1.2,0,2-0.1,2.4-0.3c0.4-0.2,0.7-0.6,1-1.1s0.4-1.5,0.4-3.1v-9.4c0-2.6-0.1-4.4-0.2-5.1c-0.1-0.6-0.3-1-0.6-1.2
			c-0.3-0.2-0.6-0.3-1.1-0.3c-0.5,0-1.1,0.1-1.8,0.4l-0.4-1l7.3-3L800.3,279.9L800.3,279.9z M798.1,267.2c0.7,0,1.4,0.3,1.9,0.8
			c0.5,0.5,0.8,1.2,0.8,1.9s-0.3,1.4-0.8,1.9s-1.2,0.8-1.9,0.8s-1.4-0.3-1.9-0.8c-0.5-0.5-0.8-1.2-0.8-1.9s0.3-1.4,0.8-1.9
			C796.6,267.4,797.3,267.2,798.1,267.2z"/>
		<path class="st0" d="M814.1,285.1c2.9-3.4,5.6-5.2,8.2-5.2c1.3,0,2.5,0.3,3.4,1s1.7,1.8,2.3,3.3c0.4,1.1,0.6,2.7,0.6,4.9v10.4
			c0,1.5,0.1,2.6,0.4,3.1c0.2,0.4,0.5,0.8,0.9,1c0.4,0.2,1.2,0.4,2.4,0.4v1h-12v-1h0.5c1.1,0,1.9-0.2,2.4-0.5
			c0.5-0.3,0.8-0.9,0.9-1.5c0.1-0.3,0.1-1.1,0.1-2.5v-10c0-2.2-0.3-3.8-0.9-4.8c-0.6-1-1.5-1.5-2.9-1.5c-2.1,0-4.2,1.2-6.3,3.5v12.8
			c0,1.6,0.1,2.7,0.3,3.1c0.2,0.5,0.6,0.9,1,1.1s1.3,0.4,2.6,0.4v1h-12v-1h0.5c1.2,0,2.1-0.3,2.5-0.9c0.4-0.6,0.7-1.8,0.7-3.6v-9
			c0-2.9-0.1-4.7-0.2-5.3s-0.3-1.1-0.6-1.3c-0.3-0.2-0.6-0.3-1.1-0.3c-0.5,0-1.1,0.1-1.8,0.4l-0.4-1l7.3-3h1.1L814.1,285.1
			L814.1,285.1z"/>
		<path class="st0" d="M841.3,272.6v8h5.7v1.9h-5.7v15.8c0,1.6,0.2,2.6,0.7,3.2c0.5,0.5,1,0.8,1.7,0.8c0.6,0,1.2-0.2,1.7-0.5
			c0.5-0.4,1-0.9,1.3-1.6h1c-0.6,1.7-1.5,3-2.6,3.9c-1.1,0.9-2.3,1.3-3.5,1.3c-0.8,0-1.6-0.2-2.4-0.7s-1.4-1.1-1.7-1.9
			s-0.6-2.1-0.6-3.9v-16.4H833v-0.9c1-0.4,2-1,3-2c1-0.9,1.9-2,2.7-3.3c0.4-0.7,1-1.9,1.7-3.7L841.3,272.6L841.3,272.6z"/>
		<path class="st0" d="M857.7,279.9v19.6c0,1.5,0.1,2.5,0.3,3c0.2,0.5,0.5,0.9,1,1.1c0.4,0.2,1.2,0.4,2.4,0.4v1h-11.8v-1
			c1.2,0,2-0.1,2.4-0.3c0.4-0.2,0.7-0.6,1-1.1s0.4-1.5,0.4-3.1v-9.4c0-2.6-0.1-4.4-0.2-5.1c-0.1-0.6-0.3-1-0.6-1.2
			c-0.3-0.2-0.6-0.3-1.1-0.3c-0.5,0-1.1,0.1-1.8,0.4l-0.4-1l7.3-3L857.7,279.9L857.7,279.9z M855.5,267.2c0.7,0,1.4,0.3,1.9,0.8
			c0.5,0.5,0.8,1.2,0.8,1.9s-0.3,1.4-0.8,1.9s-1.2,0.8-1.9,0.8s-1.4-0.3-1.9-0.8c-0.5-0.5-0.8-1.2-0.8-1.9s0.3-1.4,0.8-1.9
			C854.1,267.4,854.8,267.2,855.5,267.2z"/>
		<path class="st0" d="M871.6,285.1c2.9-3.4,5.6-5.2,8.2-5.2c1.3,0,2.5,0.3,3.4,1s1.7,1.8,2.3,3.3c0.4,1.1,0.6,2.7,0.6,4.9v10.4
			c0,1.5,0.1,2.6,0.4,3.1c0.2,0.4,0.5,0.8,0.9,1c0.4,0.2,1.2,0.4,2.4,0.4v1h-12v-1h0.5c1.1,0,1.9-0.2,2.4-0.5
			c0.5-0.3,0.8-0.9,0.9-1.5c0.1-0.3,0.1-1.1,0.1-2.5v-10c0-2.2-0.3-3.8-0.9-4.8c-0.6-1-1.5-1.5-2.9-1.5c-2.1,0-4.2,1.2-6.3,3.5v12.8
			c0,1.6,0.1,2.7,0.3,3.1c0.2,0.5,0.6,0.9,1,1.1s1.3,0.4,2.6,0.4v1h-12v-1h0.5c1.2,0,2.1-0.3,2.5-0.9c0.4-0.6,0.7-1.8,0.7-3.6v-9
			c0-2.9-0.1-4.7-0.2-5.3s-0.3-1.1-0.6-1.3c-0.3-0.2-0.6-0.3-1.1-0.3c-0.5,0-1.1,0.1-1.8,0.4l-0.4-1l7.3-3h1.1L871.6,285.1
			L871.6,285.1z"/>
		<path class="st0" d="M898.2,296.1c-1.5-0.7-2.6-1.7-3.4-3s-1.2-2.7-1.2-4.3c0-2.4,0.9-4.5,2.7-6.2c1.8-1.7,4.1-2.6,7-2.6
			c2.3,0,4.3,0.6,6,1.7h5.2c0.8,0,1.2,0,1.3,0.1c0.1,0,0.2,0.1,0.3,0.2c0.1,0.2,0.2,0.4,0.2,0.9c0,0.5,0,0.8-0.1,1
			c-0.1,0.1-0.1,0.2-0.3,0.2s-0.6,0.1-1.3,0.1h-3.2c1,1.3,1.5,2.9,1.5,4.9c0,2.3-0.9,4.2-2.6,5.8c-1.7,1.6-4.1,2.4-7,2.4
			c-1.2,0-2.4-0.2-3.7-0.5c-0.8,0.7-1.3,1.3-1.6,1.8c-0.3,0.5-0.4,0.9-0.4,1.3c0,0.3,0.1,0.6,0.4,0.9c0.3,0.3,0.9,0.5,1.7,0.6
			c0.5,0.1,1.7,0.1,3.7,0.2c3.7,0.1,6,0.2,7.1,0.4c1.6,0.2,3,0.8,3.9,1.8c1,1,1.5,2.2,1.5,3.7c0,2-0.9,3.9-2.8,5.6
			c-2.8,2.6-6.4,3.9-10.8,3.9c-3.4,0-6.3-0.8-8.7-2.3c-1.3-0.9-2-1.8-2-2.8c0-0.4,0.1-0.9,0.3-1.3c0.3-0.7,0.9-1.6,1.9-2.7
			c0.1-0.2,1-1.1,2.7-2.9c-0.9-0.5-1.6-1-2-1.5c-0.4-0.4-0.6-0.9-0.6-1.5c0-0.6,0.3-1.3,0.8-2.2S896.4,297.6,898.2,296.1z
			 M897.9,305c-0.8,0.9-1.5,1.7-1.9,2.5c-0.4,0.8-0.6,1.5-0.6,2.2c0,0.9,0.5,1.6,1.5,2.2c1.8,1.1,4.3,1.6,7.7,1.6
			c3.2,0,5.5-0.6,7.1-1.7c1.5-1.1,2.3-2.3,2.3-3.6c0-0.9-0.5-1.6-1.4-2c-0.9-0.4-2.7-0.6-5.5-0.7C903.1,305.5,900.1,305.3,897.9,305
			z M902.8,281.2c-1.3,0-2.4,0.5-3.3,1.6c-0.9,1-1.3,2.6-1.3,4.8c0,2.8,0.6,5,1.8,6.5c0.9,1.2,2.1,1.8,3.5,1.8
			c1.3,0,2.5-0.5,3.3-1.5c0.9-1,1.3-2.6,1.3-4.8c0-2.8-0.6-5-1.8-6.6C905.4,281.8,904.2,281.2,902.8,281.2z"/>
		<path class="st0" d="M958.6,281.8h11.2v1c-1.5,0.1-2.7,0.5-3.4,1c-0.7,0.6-1.9,2.2-3.4,5.1c-1.6,2.8-3.3,5.5-5.3,7.9
			c1.6,1.8,3,3.1,4.2,3.9c1.2,0.7,2.5,1.1,3.7,1.1c1.2,0,2.3-0.3,3.1-1s1.5-1.6,1.8-2.9l1,0.7c-0.7,2.5-1.7,4.3-3.2,5.5
			s-3.1,1.8-5.1,1.8c-1.5,0-2.9-0.4-4.4-1.2c-1.5-0.8-3.1-2.1-4.9-4c-2.2,2-4.2,3.3-5.9,4.1c-1.8,0.8-3.6,1.1-5.6,1.1
			c-2.9,0-5.2-0.8-7-2.3c-1.7-1.6-2.6-3.4-2.6-5.6c0-2.1,0.8-4.3,2.3-6.4c1.5-2.1,4.4-4.3,8.7-6.6c-0.8-1.8-1.4-3.4-1.7-4.5
			c-0.3-1.2-0.5-2.3-0.5-3.4c0-3,1.1-5.3,3.3-6.9c1.7-1.2,3.7-1.9,5.9-1.9c2.1,0,3.8,0.6,5.2,1.9s2,2.8,2,4.6c0,1.9-0.6,3.5-1.9,4.9
			c-1.3,1.4-3.6,3-6.8,4.7c2.2,4,4.6,7.7,7,11c3.1-3.7,4.7-6.9,4.7-9.4c0-0.8-0.3-1.5-0.8-2.2c-0.4-0.5-0.9-0.8-1.7-0.9L958.6,281.8
			L958.6,281.8z M952.6,299.1c-2.3-3.2-4-5.5-4.9-7c-0.9-1.5-1.9-3.3-3-5.5c-2.1,1.2-3.7,2.6-4.8,4c-1.1,1.5-1.6,3.1-1.6,4.8
			c0,1.9,0.6,3.6,1.8,5s2.9,2.2,4.9,2.2c1.1,0,2.2-0.2,3.2-0.7C949.4,301.5,950.8,300.5,952.6,299.1z M948.4,282.5
			c2.2-1,3.8-2.2,4.9-3.6s1.6-2.8,1.6-4.4c0-1.3-0.4-2.3-1.2-3.2c-0.8-0.8-1.8-1.2-2.9-1.2c-1.5,0-2.7,0.5-3.5,1.6
			c-0.8,1.1-1.2,2.1-1.2,3.1c0,0.9,0.2,1.8,0.5,2.9S947.6,280.4,948.4,282.5z"/>
		<path class="st0" d="M997.9,288.1v10.5c0,2.3,0.2,3.7,0.7,4.2c0.7,0.8,1.7,1.2,3.1,1.2h1.4v1h-15.4v-1h1.4c1.5,0,2.6-0.5,3.3-1.5
			c0.4-0.5,0.5-1.9,0.5-3.9v-23.3c0-2.3-0.2-3.7-0.7-4.2c-0.7-0.8-1.7-1.2-3.1-1.2h-1.4v-1h13.2c3.2,0,5.8,0.3,7.6,1
			c1.9,0.7,3.4,1.8,4.7,3.4c1.3,1.6,1.9,3.4,1.9,5.6c0,2.9-1,5.3-2.9,7.2s-4.7,2.8-8.2,2.8c-0.9,0-1.8-0.1-2.8-0.2
			C1000.2,288.5,999.1,288.3,997.9,288.1z M997.9,286.6c0.9,0.2,1.8,0.3,2.5,0.4s1.3,0.1,1.9,0.1c1.8,0,3.4-0.7,4.8-2.1
			c1.3-1.4,2-3.3,2-5.5c0-1.6-0.3-3-1-4.3c-0.6-1.3-1.5-2.3-2.7-3c-1.2-0.7-2.5-1-4-1c-0.9,0-2.1,0.2-3.5,0.5L997.9,286.6
			L997.9,286.6z"/>
		<path class="st0" d="M1025.9,279.9v5.5c2-3.7,4.1-5.5,6.3-5.5c1,0,1.8,0.3,2.4,0.9c0.6,0.6,1,1.3,1,2.1c0,0.7-0.2,1.3-0.7,1.8
			s-1,0.7-1.6,0.7c-0.6,0-1.3-0.3-2.1-0.9s-1.3-0.9-1.7-0.9c-0.3,0-0.7,0.2-1,0.5c-0.8,0.7-1.6,1.9-2.5,3.6v11.7
			c0,1.3,0.2,2.4,0.5,3.1c0.2,0.5,0.6,0.9,1.2,1.2s1.4,0.5,2.5,0.5v1h-12.5v-1c1.2,0,2.2-0.2,2.8-0.6c0.4-0.3,0.8-0.7,0.9-1.4
			c0.1-0.3,0.1-1.2,0.1-2.6v-9.4c0-2.8-0.1-4.5-0.2-5.1s-0.3-0.9-0.6-1.2c-0.3-0.2-0.7-0.4-1.2-0.4c-0.5,0-1.2,0.1-1.9,0.4l-0.3-1
			l7.4-3L1025.9,279.9L1025.9,279.9z"/>
		<path class="st0" d="M1048.8,279.9c3.7,0,6.6,1.4,8.9,4.2c1.9,2.4,2.8,5.1,2.8,8.2c0,2.2-0.5,4.4-1.6,6.6c-1,2.2-2.5,3.9-4.3,5.1
			c-1.8,1.1-3.9,1.7-6.1,1.7c-3.7,0-6.6-1.5-8.7-4.4c-1.8-2.5-2.7-5.2-2.7-8.3c0-2.2,0.6-4.5,1.7-6.7c1.1-2.2,2.6-3.8,4.4-4.9
			C1044.9,280.4,1046.8,279.9,1048.8,279.9z M1048,281.6c-0.9,0-1.9,0.3-2.8,0.8c-0.9,0.6-1.7,1.5-2.3,2.9c-0.6,1.4-0.9,3.2-0.9,5.4
			c0,3.5,0.7,6.6,2.1,9.2c1.4,2.6,3.3,3.9,5.6,3.9c1.7,0,3.1-0.7,4.3-2.1c1.1-1.4,1.7-3.9,1.7-7.3c0-4.3-0.9-7.7-2.8-10.2
			C1051.5,282.5,1049.9,281.6,1048,281.6z"/>
		<path class="st0" d="M1081.3,302.2c-1.2,1.2-2.3,2.1-3.5,2.7c-1.1,0.5-2.4,0.8-3.7,0.8c-2.7,0-5-1.1-7-3.3s-3-5.1-3-8.6
			s1.1-6.7,3.3-9.6c2.2-2.9,5-4.3,8.5-4.3c2.1,0,3.9,0.7,5.3,2v-4.5c0-2.8-0.1-4.5-0.2-5.1c-0.1-0.6-0.3-1.1-0.6-1.3
			c-0.3-0.2-0.6-0.3-1.1-0.3c-0.5,0-1.1,0.1-1.8,0.4l-0.3-0.9l7.3-3h1.2v28.2c0,2.9,0.1,4.6,0.2,5.2c0.1,0.6,0.3,1.1,0.6,1.3
			c0.3,0.2,0.6,0.4,1,0.4c0.5,0,1.1-0.1,1.9-0.5l0.3,0.9l-7.2,3h-1.2L1081.3,302.2L1081.3,302.2z M1081.3,300.4v-12.5
			c-0.1-1.2-0.4-2.3-1-3.3c-0.5-1-1.2-1.7-2.1-2.2c-0.9-0.5-1.7-0.8-2.6-0.8c-1.6,0-3,0.7-4.2,2.1c-1.6,1.8-2.4,4.5-2.4,8.1
			c0,3.6,0.8,6.3,2.3,8.2c1.6,1.9,3.3,2.9,5.2,2.9C1078.2,302.8,1079.8,302,1081.3,300.4z"/>
		<path class="st0" d="M1112.7,280.6v14.8c0,2.8,0.1,4.5,0.2,5.2c0.1,0.6,0.3,1.1,0.6,1.3c0.3,0.2,0.6,0.4,1,0.4
			c0.5,0,1.2-0.1,1.9-0.5l0.4,0.9l-7.3,3h-1.2v-5.2c-2.1,2.3-3.7,3.7-4.8,4.3c-1.1,0.6-2.3,0.9-3.5,0.9c-1.4,0-2.5-0.4-3.5-1.2
			c-1-0.8-1.7-1.8-2.1-3c-0.4-1.2-0.6-3-0.6-5.3v-10.9c0-1.2-0.1-2-0.4-2.4c-0.2-0.4-0.6-0.8-1.1-1s-1.4-0.4-2.6-0.3v-1h8.5v16.3
			c0,2.3,0.4,3.8,1.2,4.5c0.8,0.7,1.7,1.1,2.9,1.1c0.8,0,1.6-0.2,2.6-0.7s2.1-1.4,3.4-2.7v-13.8c0-1.4-0.3-2.3-0.8-2.8
			c-0.5-0.5-1.6-0.7-3.2-0.8v-1L1112.7,280.6L1112.7,280.6z"/>
		<path class="st0" d="M1139.2,295.7c-0.7,3.2-1.9,5.7-3.9,7.4s-4,2.6-6.4,2.6c-2.8,0-5.2-1.2-7.2-3.5c-2.1-2.3-3.1-5.5-3.1-9.4
			c0-3.8,1.1-6.9,3.4-9.3c2.3-2.4,5-3.6,8.2-3.6c2.4,0,4.4,0.6,5.9,1.9c1.5,1.3,2.3,2.6,2.3,3.9c0,0.7-0.2,1.2-0.7,1.6
			s-1,0.6-1.8,0.6c-1,0-1.8-0.3-2.4-1c-0.3-0.4-0.5-1.1-0.6-2.1s-0.5-1.8-1.1-2.4c-0.6-0.5-1.5-0.8-2.6-0.8c-1.8,0-3.2,0.7-4.3,2
			c-1.4,1.7-2.2,4-2.2,6.9c0,2.9,0.7,5.5,2.1,7.7c1.4,2.2,3.4,3.3,5.8,3.3c1.7,0,3.3-0.6,4.7-1.8c1-0.8,1.9-2.3,2.8-4.4
			L1139.2,295.7z"/>
		<path class="st0" d="M1149.8,272.6v8h5.7v1.9h-5.7v15.8c0,1.6,0.2,2.6,0.7,3.2c0.5,0.5,1,0.8,1.7,0.8c0.6,0,1.2-0.2,1.7-0.5
			c0.5-0.4,1-0.9,1.3-1.6h1c-0.6,1.7-1.5,3-2.6,3.9c-1.1,0.9-2.3,1.3-3.5,1.3c-0.8,0-1.6-0.2-2.4-0.7c-0.8-0.5-1.4-1.1-1.7-1.9
			s-0.6-2.1-0.6-3.9v-16.4h-3.9v-0.9c1-0.4,2-1,3-2c1-0.9,1.9-2,2.7-3.3c0.4-0.7,1-1.9,1.7-3.7L1149.8,272.6L1149.8,272.6z"/>
		<path class="st0" d="M1170.7,305v-1h1.4c1.5,0,2.6-0.5,3.2-1.5c0.4-0.6,0.6-1.9,0.6-3.9v-23.3c0-2.2-0.2-3.7-0.7-4.2
			c-0.7-0.8-1.7-1.2-3.1-1.2h-1.4v-1h14.7c5.4,0,9.5,0.6,12.3,1.8s5.1,3.3,6.8,6.1c1.7,2.9,2.6,6.1,2.6,9.9c0,5-1.5,9.2-4.6,12.6
			c-3.4,3.8-8.6,5.6-15.6,5.6L1170.7,305L1170.7,305z M1181,302.4c2.2,0.5,4.1,0.7,5.7,0.7c4.1,0,7.5-1.4,10.2-4.3
			c2.7-2.9,4.1-6.8,4.1-11.8c0-5-1.4-8.9-4.1-11.8c-2.7-2.9-6.2-4.3-10.4-4.3c-1.6,0-3.4,0.3-5.4,0.8V302.4z"/>
		<path class="st0" d="M1214.9,289.8c0,3.6,0.9,6.5,2.6,8.5c1.8,2.1,3.9,3.1,6.2,3.1c1.6,0,3-0.4,4.2-1.3c1.2-0.9,2.2-2.4,3-4.5
			l0.8,0.5c-0.4,2.4-1.5,4.6-3.2,6.6c-1.8,2-4,3-6.7,3c-2.9,0-5.4-1.1-7.5-3.4c-2.1-2.3-3.1-5.3-3.1-9.2c0-4.2,1.1-7.4,3.2-9.7
			s4.8-3.5,8-3.5c2.7,0,5,0.9,6.7,2.7c1.8,1.8,2.6,4.2,2.6,7.2L1214.9,289.8L1214.9,289.8z M1214.9,288.3h11.3
			c-0.1-1.6-0.3-2.7-0.6-3.3c-0.4-1-1.1-1.8-2-2.3c-0.9-0.6-1.8-0.9-2.8-0.9c-1.5,0-2.8,0.6-3.9,1.7
			C1215.7,284.6,1215.1,286.2,1214.9,288.3z"/>
		<path class="st0" d="M1255.6,295.7c-0.7,3.2-1.9,5.7-3.9,7.4s-4,2.6-6.4,2.6c-2.8,0-5.2-1.2-7.2-3.5c-2.1-2.3-3.1-5.5-3.1-9.4
			c0-3.8,1.1-6.9,3.4-9.3c2.3-2.4,5-3.6,8.2-3.6c2.4,0,4.4,0.6,5.9,1.9c1.5,1.3,2.3,2.6,2.3,3.9c0,0.7-0.2,1.2-0.7,1.6
			s-1,0.6-1.8,0.6c-1,0-1.8-0.3-2.4-1c-0.3-0.4-0.5-1.1-0.6-2.1s-0.5-1.8-1.1-2.4c-0.6-0.5-1.5-0.8-2.6-0.8c-1.8,0-3.2,0.7-4.3,2
			c-1.4,1.7-2.2,4-2.2,6.9c0,2.9,0.7,5.5,2.1,7.7c1.4,2.2,3.4,3.3,5.8,3.3c1.7,0,3.3-0.6,4.7-1.8c1-0.8,1.9-2.3,2.8-4.4
			L1255.6,295.7z"/>
		<path class="st0" d="M1271,279.9c3.7,0,6.6,1.4,8.9,4.2c1.9,2.4,2.8,5.1,2.8,8.2c0,2.2-0.5,4.4-1.6,6.6c-1,2.2-2.5,3.9-4.3,5.1
			c-1.8,1.1-3.9,1.7-6.1,1.7c-3.7,0-6.6-1.5-8.7-4.4c-1.8-2.5-2.7-5.2-2.7-8.3c0-2.2,0.6-4.5,1.7-6.7c1.1-2.2,2.6-3.8,4.4-4.9
			C1267.1,280.4,1269,279.9,1271,279.9z M1270.2,281.6c-0.9,0-1.9,0.3-2.8,0.8c-0.9,0.6-1.7,1.5-2.3,2.9c-0.6,1.4-0.9,3.2-0.9,5.4
			c0,3.5,0.7,6.6,2.1,9.2c1.4,2.6,3.3,3.9,5.6,3.9c1.7,0,3.1-0.7,4.3-2.1c1.1-1.4,1.7-3.9,1.7-7.3c0-4.3-0.9-7.7-2.8-10.2
			C1273.7,282.5,1272.1,281.6,1270.2,281.6z"/>
		<path class="st0" d="M1293.4,279.9v5.5c2-3.7,4.1-5.5,6.3-5.5c1,0,1.8,0.3,2.4,0.9c0.6,0.6,1,1.3,1,2.1c0,0.7-0.2,1.3-0.7,1.8
			s-1,0.7-1.6,0.7c-0.6,0-1.3-0.3-2.1-0.9s-1.3-0.9-1.7-0.9c-0.3,0-0.7,0.2-1,0.5c-0.8,0.7-1.6,1.9-2.5,3.6v11.7
			c0,1.3,0.2,2.4,0.5,3.1c0.2,0.5,0.6,0.9,1.2,1.2s1.4,0.5,2.5,0.5v1h-12.5v-1c1.2,0,2.2-0.2,2.8-0.6c0.4-0.3,0.8-0.7,0.9-1.4
			c0.1-0.3,0.1-1.2,0.1-2.6v-9.4c0-2.8-0.1-4.5-0.2-5.1s-0.3-0.9-0.6-1.2c-0.3-0.2-0.7-0.4-1.2-0.4c-0.6,0-1.2,0.1-1.9,0.4l-0.3-1
			l7.4-3L1293.4,279.9L1293.4,279.9z"/>
		<path class="st0" d="M1318.2,301.5c-2.5,1.9-4.1,3-4.7,3.4c-1,0.4-2,0.7-3.1,0.7c-1.7,0-3.1-0.6-4.2-1.7s-1.6-2.7-1.6-4.5
			c0-1.2,0.3-2.2,0.8-3.1c0.7-1.2,2-2.3,3.8-3.4c1.8-1.1,4.8-2.4,9-3.9v-1c0-2.4-0.4-4.1-1.2-5s-1.9-1.4-3.4-1.4
			c-1.1,0-2,0.3-2.7,0.9c-0.7,0.6-1,1.3-1,2.1l0.1,1.5c0,0.8-0.2,1.4-0.6,1.9c-0.4,0.4-1,0.7-1.6,0.7c-0.7,0-1.2-0.2-1.6-0.7
			c-0.4-0.5-0.6-1.1-0.6-1.9c0-1.5,0.8-2.9,2.3-4.2c1.6-1.3,3.7-1.9,6.6-1.9c2.2,0,3.9,0.4,5.3,1.1c1,0.5,1.8,1.4,2.3,2.6
			c0.3,0.8,0.5,2.3,0.5,4.7v8.3c0,2.3,0,3.7,0.1,4.3c0.1,0.5,0.2,0.9,0.4,1s0.4,0.3,0.7,0.3c0.3,0,0.5-0.1,0.7-0.2
			c0.4-0.2,1.1-0.9,2.2-1.9v1.5c-2,2.7-3.9,4-5.7,4c-0.9,0-1.6-0.3-2.1-0.9C1318.5,304,1318.3,302.9,1318.2,301.5z M1318.2,299.7
			v-9.3c-2.7,1.1-4.4,1.8-5.2,2.3c-1.4,0.8-2.4,1.6-3,2.4s-0.9,1.8-0.9,2.8c0,1.3,0.4,2.3,1.1,3.2c0.8,0.8,1.6,1.3,2.6,1.3
			C1314.3,302.4,1316,301.5,1318.2,299.7z"/>
		<path class="st0" d="M1335.7,272.6v8h5.7v1.9h-5.7v15.8c0,1.6,0.2,2.6,0.7,3.2c0.5,0.5,1,0.8,1.7,0.8c0.6,0,1.2-0.2,1.7-0.5
			c0.5-0.4,1-0.9,1.3-1.6h1c-0.6,1.7-1.5,3-2.6,3.9c-1.1,0.9-2.3,1.3-3.5,1.3c-0.8,0-1.6-0.2-2.4-0.7c-0.8-0.5-1.4-1.1-1.7-1.9
			s-0.6-2.1-0.6-3.9v-16.4h-3.9v-0.9c1-0.4,2-1,3-2c1-0.9,1.9-2,2.7-3.3c0.4-0.7,1-1.9,1.7-3.7L1335.7,272.6L1335.7,272.6z"/>
		<path class="st0" d="M1352.1,279.9v19.6c0,1.5,0.1,2.5,0.3,3c0.2,0.5,0.5,0.9,1,1.1c0.4,0.2,1.2,0.4,2.4,0.4v1H1344v-1
			c1.2,0,2-0.1,2.4-0.3c0.4-0.2,0.7-0.6,1-1.1s0.4-1.5,0.4-3.1v-9.4c0-2.6-0.1-4.4-0.2-5.1c-0.1-0.6-0.3-1-0.6-1.2
			c-0.3-0.2-0.6-0.3-1.1-0.3c-0.5,0-1.1,0.1-1.8,0.4l-0.4-1l7.3-3L1352.1,279.9L1352.1,279.9z M1349.9,267.2c0.7,0,1.4,0.3,1.9,0.8
			c0.5,0.5,0.8,1.2,0.8,1.9s-0.3,1.4-0.8,1.9s-1.2,0.8-1.9,0.8s-1.4-0.3-1.9-0.8c-0.5-0.5-0.8-1.2-0.8-1.9s0.3-1.4,0.8-1.9
			C1348.5,267.4,1349.2,267.2,1349.9,267.2z"/>
		<path class="st0" d="M1366,285.1c2.9-3.4,5.6-5.2,8.2-5.2c1.3,0,2.5,0.3,3.4,1s1.7,1.8,2.3,3.3c0.4,1.1,0.6,2.7,0.6,4.9v10.4
			c0,1.5,0.1,2.6,0.4,3.1c0.2,0.4,0.5,0.8,0.9,1c0.4,0.2,1.2,0.4,2.4,0.4v1h-12v-1h0.5c1.1,0,1.9-0.2,2.4-0.5
			c0.5-0.3,0.8-0.9,0.9-1.5c0.1-0.3,0.1-1.1,0.1-2.5v-10c0-2.2-0.3-3.8-0.9-4.8c-0.6-1-1.5-1.5-2.9-1.5c-2.1,0-4.2,1.2-6.3,3.5v12.8
			c0,1.6,0.1,2.7,0.3,3.1c0.2,0.5,0.6,0.9,1,1.1s1.3,0.4,2.6,0.4v1h-12v-1h0.5c1.2,0,2.1-0.3,2.5-0.9c0.4-0.6,0.7-1.8,0.7-3.6v-9
			c0-2.9-0.1-4.7-0.2-5.3c-0.1-0.6-0.3-1.1-0.6-1.3c-0.3-0.2-0.6-0.3-1.1-0.3c-0.5,0-1.1,0.1-1.8,0.4l-0.4-1l7.3-3h1.1L1366,285.1
			L1366,285.1z"/>
		<path class="st0" d="M1392.6,296.1c-1.5-0.7-2.6-1.7-3.4-3s-1.2-2.7-1.2-4.3c0-2.4,0.9-4.5,2.7-6.2c1.8-1.7,4.1-2.6,7-2.6
			c2.3,0,4.3,0.6,6,1.7h5.2c0.8,0,1.2,0,1.3,0.1s0.2,0.1,0.3,0.2c0.1,0.2,0.2,0.4,0.2,0.9c0,0.5,0,0.8-0.1,1
			c-0.1,0.1-0.1,0.2-0.3,0.2s-0.6,0.1-1.3,0.1h-3.2c1,1.3,1.5,2.9,1.5,4.9c0,2.3-0.9,4.2-2.6,5.8c-1.7,1.6-4.1,2.4-7,2.4
			c-1.2,0-2.4-0.2-3.7-0.5c-0.8,0.7-1.3,1.3-1.6,1.8c-0.3,0.5-0.4,0.9-0.4,1.3c0,0.3,0.1,0.6,0.4,0.9c0.3,0.3,0.9,0.5,1.7,0.6
			c0.5,0.1,1.7,0.1,3.7,0.2c3.7,0.1,6,0.2,7.1,0.4c1.6,0.2,3,0.8,3.9,1.8c1,1,1.5,2.2,1.5,3.7c0,2-0.9,3.9-2.8,5.6
			c-2.8,2.6-6.4,3.9-10.8,3.9c-3.4,0-6.3-0.8-8.7-2.3c-1.3-0.9-2-1.8-2-2.8c0-0.4,0.1-0.9,0.3-1.3c0.3-0.7,0.9-1.6,1.9-2.7
			c0.1-0.2,1-1.1,2.7-2.9c-0.9-0.5-1.6-1-2-1.5c-0.4-0.4-0.6-0.9-0.6-1.5c0-0.6,0.3-1.3,0.8-2.2S1390.8,297.6,1392.6,296.1z
			 M1392.3,305c-0.8,0.9-1.5,1.7-1.9,2.5c-0.4,0.8-0.6,1.5-0.6,2.2c0,0.9,0.5,1.6,1.5,2.2c1.8,1.1,4.3,1.6,7.7,1.6
			c3.2,0,5.5-0.6,7.1-1.7c1.5-1.1,2.3-2.3,2.3-3.6c0-0.9-0.5-1.6-1.4-2c-0.9-0.4-2.7-0.6-5.5-0.7
			C1397.5,305.5,1394.5,305.3,1392.3,305z M1397.2,281.2c-1.3,0-2.4,0.5-3.3,1.6c-0.9,1-1.3,2.6-1.3,4.8c0,2.8,0.6,5,1.8,6.5
			c0.9,1.2,2.1,1.8,3.5,1.8c1.3,0,2.5-0.5,3.3-1.5c0.9-1,1.3-2.6,1.3-4.8c0-2.8-0.6-5-1.8-6.6
			C1399.8,281.8,1398.6,281.2,1397.2,281.2z"/>
	</g>
</g>
</svg>
