<!-- Generator: Adobe Illustrator 19.2.1, SVG Export Plug-In  -->
<svg version="1.1"
	 xmlns="http://www.w3.org/2000/svg" xmlns:xlink="http://www.w3.org/1999/xlink" xmlns:a="http://ns.adobe.com/AdobeSVGViewerExtensions/3.0/"
	 x="0px" y="0px" width="556.262px" height="234.252px" viewBox="0 0 556.262 234.252"
	 style="enable-background:new 0 0 556.262 234.252;" xml:space="preserve">
<style type="text/css">
	.st0{fill:none;stroke:#000000;stroke-width:6;stroke-miterlimit:10;}
</style>
<defs>
</defs>
<rect x="402.71" y="64.111" width="148.459" height="5.645"/>
<rect x="423.647" y="104.865" width="110.798" height="3.804"/>
<rect x="423.647" y="115.088" width="110.798" height="3.804"/>
<rect x="423.647" y="125.312" width="110.798" height="3.804"/>
<rect x="423.647" y="135.535" width="110.798" height="3.804"/>
<rect x="423.647" y="145.758" width="110.798" height="3.804"/>
<rect x="423.647" y="155.981" width="110.798" height="3.804"/>
<rect x="423.647" y="166.204" width="110.798" height="3.804"/>
<rect x="423.647" y="176.427" width="110.798" height="3.804"/>
<rect x="423.647" y="186.65" width="110.798" height="3.804"/>
<rect x="423.647" y="196.873" width="110.798" height="3.804"/>
<rect x="423.647" y="207.097" width="110.798" height="3.804"/>
<rect x="423.647" y="217.32" width="110.798" height="3.804"/>
<rect y="226.444" width="551.169" height="7.808"/>
<rect x="468.645" y="146.635" transform="matrix(1.930793e-011 1 -1 1.930793e-011 702.8972 -404.5343)" width="170.142" height="5.093"/>
<rect x="467.762" y="159.517" transform="matrix(2.495052e-011 1 -1 2.495052e-011 699.3304 -374.9286)" width="138.734" height="5.369"/>
<rect x="351.595" y="159.517" transform="matrix(2.492477e-011 1 -1 2.492477e-011 583.1633 -258.7616)" width="138.734" height="5.369"/>
<rect x="418.278" y="90.392" width="121.536" height="5.369"/>
<path class="st0" d="M402.532,229.552c0-71.38,0.217-152.647,0.217-226.552H60.262l-0.083,13.444
	c0,73.441-0.637,137.832-0.637,212.439L402.532,229.552z M193.81,198.903c-32.65,0.326-36.33,0.698-98.956,0.401
	c0-19.271,0-19.885,0-40.694c16.879,0,33.143,0,49.407,0c15.565,0,31.13,0,49.549,0C193.81,179.041,193.81,177.969,193.81,198.903z
	 M372.656,198.01c-33.157,0-114.973,0-148.793,0c0-18.103,0-19.62,0-39.399c31.708,0,114.154,0,148.793,0
	C372.656,175.96,372.656,177.452,372.656,198.01z M372.656,69.756c-53.831,0-94.312,0-148.793,0c0-12.942,0-23.126,0-34.723
	c53.952,0,94.423,0,148.793,0C372.656,46.836,372.656,57.576,372.656,69.756z"/>
<g>
	<polygon points="88.088,105.276 93.623,105.276 93.623,128.247 95.952,128.247 95.952,105.276 101.457,105.276 101.457,102.734 
		88.088,102.734 	"/>
	<polygon points="113.789,128.304 125.599,128.304 125.599,126.061 116.061,126.061 116.061,118.137 125.642,118.137 
		125.642,115.893 116.061,115.893 116.061,108.356 125.642,108.356 125.642,106.112 113.789,106.112 	"/>
	<path d="M156.445,122.417L156.445,122.417c-1.426,1.444-2.586,2.428-3.447,2.925c-1.151,0.657-2.559,0.991-4.186,0.991
		c-2.509,0-4.605-0.89-6.41-2.722c-1.808-1.834-2.686-3.947-2.686-6.46c0-2.444,0.871-4.504,2.661-6.3
		c1.791-1.795,3.839-2.667,6.263-2.667c1.479,0,2.887,0.302,4.186,0.899c1.289,0.592,2.358,1.418,3.179,2.457l0.219,0.277h2.863
		l-0.869-1.164c-2.375-3.183-5.583-4.798-9.536-4.798c-3.08,0-5.758,1.152-7.959,3.425c-2.195,2.266-3.308,5.011-3.308,8.157
		c0,2.973,1.136,5.605,3.376,7.825c2.238,2.218,4.884,3.343,7.863,3.343c4.136,0,7.446-1.771,9.839-5.265l0.781-1.14h-2.616
		L156.445,122.417z"/>
	<polygon points="183.494,116.308 173.382,116.308 173.382,106.184 171.067,106.184 171.067,128.333 173.382,128.333 
		173.382,118.58 183.494,118.58 183.494,128.333 185.795,128.333 185.795,106.141 183.494,106.141 	"/>
	<polygon points="214.099,124.151 201.77,106.147 201.726,106.084 199.27,106.084 199.27,128.276 201.542,128.276 201.542,109.84 
		214.173,128.331 216.4,128.334 216.4,106.084 214.099,106.084 	"/>
	<path d="M237.2,106.084l-9.428,22.223l2.419-0.005l3.171-7.29h10.15l3.087,7.301l2.466-0.014l-9.486-22.215H237.2z
		 M242.555,118.796h-8.263l4.137-9.721L242.555,118.796z"/>
	<path d="M271.821,104.406c-1.45-1.072-3.303-1.615-5.507-1.615h-5.39v25.485h2.315v-10.413h3.948c2.229,0,4.023-0.684,5.333-2.033
		c1.328-1.367,2.002-3.266,2.002-5.643C274.521,107.656,273.613,105.711,271.821,104.406z M267.337,115.359h-4.098v-10.113h3.013
		c1.663,0,3.06,0.384,4.152,1.141c1.242,0.879,1.846,2.123,1.846,3.801c0,1.601-0.428,2.833-1.308,3.767
		C270.05,114.899,268.871,115.359,267.337,115.359z"/>
	<path d="M302.181,113.389c0-2.337-0.796-4.164-2.367-5.429c-1.523-1.226-3.69-1.848-6.441-1.848h-5.919v22.135h2.272v-19.892h3.708
		c2.076,0,3.705,0.454,4.842,1.35c1.1,0.867,1.634,2.069,1.634,3.677c0,1.268-0.41,2.325-1.254,3.231
		c-0.855,0.919-1.93,1.452-3.286,1.629c-0.368,0.044-0.791,0.066-1.255,0.066l-0.227,0c-0.145-0.01-0.26-0.015-0.344-0.015h-2
		l7.115,9.974l0.043,0.06l2.924,0.024l-0.996-1.205c-0.857-1.037-1.813-2.321-2.843-3.815l-1.976-2.878
		c1.607-0.184,3.001-0.807,4.146-1.854C301.433,117.254,302.181,115.5,302.181,113.389z"/>
	<rect x="315.671" y="106.084" width="2.272" height="22.192"/>
	<polygon points="345.904,124.151 333.575,106.147 333.532,106.084 331.075,106.084 331.075,128.276 333.347,128.276 
		333.347,109.84 345.978,128.331 348.205,128.334 348.205,106.084 345.904,106.084 	"/>
	<polygon points="360.393,106.084 360.393,108.327 365.927,108.327 365.927,128.247 368.257,128.247 368.257,108.327 
		373.762,108.327 373.762,106.084 	"/>
</g>
<rect x="94.773" y="35.033" class="st0" width="99.119" height="34.723"/>
<path d="M59.542,130.605L17.069,156.06c-1.997,1.409-1,4.55,1.444,4.55h41.03V130.605z"/>
</svg>