<svg id="Layer_1" data-name="Layer 1" xmlns="http://www.w3.org/2000/svg" viewBox="0 0 360 166.49"><defs><style>.cls-1{fill:#231f20;}</style></defs><title>tp_building</title><path class="cls-1" d="M250.41,165.1H49.9V3.16h200.5Zm-198.3-2.2H248.2V5.36H52.11Z" transform="translate(-3.6 -3.16)"/><path class="cls-1" d="M363.58,165.1H248.2V45.34H363.58Zm-113.18-2.2h111V47.54h-111Z" transform="translate(-3.6 -3.16)"/><path class="cls-1" d="M115.43,63.49H72.76V39.8h42.66Zm-41-1.65h39.36V41.45H74.42Z" transform="translate(-3.6 -3.16)"/><path class="cls-1" d="M115.43,136.91H72.76V113.22h42.66Zm-41-1.65h39.36V114.87H74.42Z" transform="translate(-3.6 -3.16)"/><path class="cls-1" d="M232.5,63.49H128.82V39.8H232.5Zm-102-1.65H230.85V41.45H130.48Z" transform="translate(-3.6 -3.16)"/><path class="cls-1" d="M349.1,164.82H262.69v-103H349.1Zm-84.76-1.65h83.1V63.49h-83.1Z" transform="translate(-3.6 -3.16)"/><path class="cls-1" d="M232.5,136.91H128.82V113.22H232.5Zm-102-1.65H230.85V114.87H130.48Z" transform="translate(-3.6 -3.16)"/><rect class="cls-1" x="259.92" y="68.85" width="84.76" height="1.1"/><rect class="cls-1" x="259.92" y="78.13" width="84.76" height="1.1"/><rect class="cls-1" x="259.92" y="87.4" width="84.76" height="1.1"/><rect class="cls-1" x="259.92" y="96.67" width="84.76" height="1.1"/><rect class="cls-1" x="259.92" y="105.94" width="84.76" height="1.1"/><rect class="cls-1" x="259.92" y="115.21" width="84.76" height="1.1"/><rect class="cls-1" x="259.92" y="124.49" width="84.76" height="1.1"/><rect class="cls-1" x="259.92" y="133.76" width="84.76" height="1.1"/><rect class="cls-1" x="259.92" y="143.03" width="84.76" height="1.1"/><rect class="cls-1" x="259.92" y="152.3" width="84.76" height="1.1"/><rect class="cls-1" x="3.06" y="160.84" width="356.94" height="5.65"/><path class="cls-1" d="M5.35,107.81H51V85.42l-46.32,19A1.75,1.75,0,0,0,5.35,107.81Z" transform="translate(-3.6 -3.16)"/><path class="cls-1" d="M83.23,83.8V82.7h6.2V83.8H86.91V94H85.75V83.8Z" transform="translate(-3.6 -3.16)"/><path class="cls-1" d="M94.22,82.7h6.49V83.8H95.35v3.55h5.31v1.11H95.35V92.9h5.31V94H94.22Z" transform="translate(-3.6 -3.16)"/><path class="cls-1" d="M116.35,84.8l-.89.68A4.88,4.88,0,0,0,113.68,84a5.19,5.19,0,0,0-2.27-.5,5,5,0,0,0-2.51.65,4.67,4.67,0,0,0-1.79,1.75,4.83,4.83,0,0,0-.63,2.47,4.63,4.63,0,0,0,1.42,3.45,4.92,4.92,0,0,0,3.58,1.38,5,5,0,0,0,4-1.86l.89.68a5.7,5.7,0,0,1-2.11,1.67,6.62,6.62,0,0,1-2.83.59,5.88,5.88,0,0,1-4.69-2,6,6,0,0,1-1.44-4A5.61,5.61,0,0,1,107,84.11a6,6,0,0,1,4.37-1.7,6.41,6.41,0,0,1,2.86.63A5.55,5.55,0,0,1,116.35,84.8Z" transform="translate(-3.6 -3.16)"/><path class="cls-1" d="M121.76,82.7h1.13v4.75h5.76V82.7h1.13V94h-1.13V88.55h-5.76V94h-1.13Z" transform="translate(-3.6 -3.16)"/><path class="cls-1" d="M135.69,94V82.7h.25l7.53,8.68V82.7h1.12V94h-.25l-7.47-8.57V94Z" transform="translate(-3.6 -3.16)"/><path class="cls-1" d="M155.11,82.7,160.39,94h-1.22l-1.78-3.72h-4.87L150.75,94h-1.26l5.35-11.32ZM155,85.1,153,89.2h3.87Z" transform="translate(-3.6 -3.16)"/><path class="cls-1" d="M165.29,82.7h2.25a13,13,0,0,1,2.62.17,2.9,2.9,0,0,1,1.58,1,3.17,3.17,0,0,1,0,3.73,3,3,0,0,1-1.65,1,14.62,14.62,0,0,1-2.88.18h-.81V94h-1.13Zm1.13,1.11v3.84l1.92,0a5,5,0,0,0,1.7-.21,1.73,1.73,0,0,0,.85-.68,1.89,1.89,0,0,0,.31-1.06,1.86,1.86,0,0,0-.31-1,1.7,1.7,0,0,0-.81-.67,4.87,4.87,0,0,0-1.65-.2Z" transform="translate(-3.6 -3.16)"/><path class="cls-1" d="M177.83,82.7h2.25a13.67,13.67,0,0,1,2.55.15,2.92,2.92,0,0,1,1.64,1,2.83,2.83,0,0,1,.63,1.87,3,3,0,0,1-.43,1.63,2.72,2.72,0,0,1-1.24,1.06,5.72,5.72,0,0,1-2.23.37L185.07,94h-1.4l-4.07-5.25H179V94h-1.13ZM179,83.8v3.85l1.95,0a4.86,4.86,0,0,0,1.68-.22,1.75,1.75,0,0,0,.85-.69,1.92,1.92,0,0,0,.3-1.06,1.84,1.84,0,0,0-.31-1,1.72,1.72,0,0,0-.81-.67,4.92,4.92,0,0,0-1.66-.2Z" transform="translate(-3.6 -3.16)"/><path class="cls-1" d="M190.32,82.7h1.13V94h-1.13Z" transform="translate(-3.6 -3.16)"/><path class="cls-1" d="M197.2,94V82.7h.25L205,91.37V82.7h1.12V94h-.25l-7.47-8.57V94Z" transform="translate(-3.6 -3.16)"/><path class="cls-1" d="M210.88,83.8V82.7h6.2V83.8h-2.52V94H213.4V83.8Z" transform="translate(-3.6 -3.16)"/></svg>